<?xml version="1.0" encoding="utf-8"?>
<!-- Generator: Adobe Illustrator 18.0.0, SVG Export Plug-In . SVG Version: 6.00 Build 0)  -->
<!DOCTYPE svg PUBLIC "-//W3C//DTD SVG 1.1//EN" "http://www.w3.org/Graphics/SVG/1.1/DTD/svg11.dtd">
<svg version="1.1" id="Capa_1" xmlns="http://www.w3.org/2000/svg" xmlns:xlink="http://www.w3.org/1999/xlink" x="0px" y="0px"
	 viewBox="268 0 315 315" enable-background="new 268 0 315 315" xml:space="preserve">
<circle fill="#00A99D" cx="425.5" cy="157.5" r="157.5"/>
<path fill="#FBCE9D" d="M555.5,246.4c-3.6-34.7-32.9-61.8-68.5-61.8h-32.3c-4.1,0-7.4-3.3-7.4-7.4v-3.5c0-3.2,2.1-5.9,5-7
	c31.5-11.9,53.1-63.6,48.7-100.1c-4.1-34.5-32.2-62.3-66.7-66.1c-2.8-0.3-5.6-0.5-8.3-0.5c-0.1,0-0.2,0-0.3,0
	c-42.1-0.1-76.2,34-76.2,76c0,32.7,20.7,80.1,49.7,90.9c2.8,1,4.6,3.9,4.6,6.9v3.4c0,4.1-3.3,7.4-7.4,7.4h-32.3
	c-35.7,0-65,27.1-68.5,61.8c28.4,41.4,76,68.6,130,68.6S527.1,287.8,555.5,246.4z"/>
<path fill="#6B5B4B" d="M449.9,35.9c20.2,5.5,39.2,18,51.3,34.3c-0.1-1.2-0.1-2.4-0.3-3.6c-4.1-34.5-32.2-62.3-66.7-66.1
	c-2.8-0.3-5.6-0.5-8.3-0.5c-0.1,0-0.2,0-0.3,0c-37.6-0.1-68.8,27.1-75,62.9h0c1,1.4,1.9,2.8,3,4.1c0.4-0.5,0.8-0.9,1.2-1.4
	c10.9-12.9,29-15.9,44.4-9.1c4.7,2.1,9.9,3.2,15.4,3.2C430.6,59.7,444.3,49.9,449.9,35.9z"/>
<path fill="#556080" d="M555.5,246.4c-3.6-34.7-32.9-61.8-68.5-61.8h-18l-43.4,43.4l-43.4-43.4h-18c-35.7,0-65,27.1-68.5,61.8
	c28.4,41.4,76,68.6,130,68.6S527.1,287.8,555.5,246.4z"/>
<path fill="#424A60" d="M501.5,295.4c3.7-2.1,7.3-4.3,10.9-6.6v-33.5h-10.9V295.4z"/>
<path fill="#424A60" d="M349.5,295.4v-40.1h-10.9v33.5C342.1,291.1,345.7,293.3,349.5,295.4z"/>
</svg>
